<mxfile host="app.diagrams.net" modified="2021-05-15T22:06:01.972Z" agent="5.0 (Windows NT 10.0; Win64; x64) AppleWebKit/537.36 (KHTML, like Gecko) Chrome/90.0.4430.212 Safari/537.36" etag="bBe7zspL2T93YYaWaoAi" version="14.6.13" type="github">
  <diagram name="Page-1" id="edf60f1a-56cd-e834-aa8a-f176f3a09ee4">
    <mxGraphModel dx="670" dy="509" grid="1" gridSize="10" guides="1" tooltips="1" connect="1" arrows="1" fold="1" page="1" pageScale="1" pageWidth="1100" pageHeight="850" background="#ffffff" math="0" shadow="0">
      <root>
        <mxCell id="0" />
        <mxCell id="1" parent="0" />
        <mxCell id="SFstPTwYjAzJgic-Dg-D-27" value="" style="endArrow=classic;html=1;" edge="1" parent="1">
          <mxGeometry relative="1" as="geometry">
            <mxPoint x="173.75" y="49.5" as="sourcePoint" />
            <mxPoint x="300" y="50" as="targetPoint" />
          </mxGeometry>
        </mxCell>
        <mxCell id="SFstPTwYjAzJgic-Dg-D-28" value="True" style="edgeLabel;resizable=0;html=1;align=center;verticalAlign=middle;" connectable="0" vertex="1" parent="SFstPTwYjAzJgic-Dg-D-27">
          <mxGeometry relative="1" as="geometry" />
        </mxCell>
        <mxCell id="SFstPTwYjAzJgic-Dg-D-30" value="convert" style="text;html=1;strokeColor=none;fillColor=none;align=center;verticalAlign=middle;whiteSpace=wrap;rounded=0;" vertex="1" parent="1">
          <mxGeometry x="300" y="40" width="40" height="20" as="geometry" />
        </mxCell>
        <mxCell id="SFstPTwYjAzJgic-Dg-D-31" value="True" style="endArrow=classic;html=1;exitX=0.5;exitY=1;exitDx=0;exitDy=0;" edge="1" parent="1">
          <mxGeometry relative="1" as="geometry">
            <mxPoint x="135" y="90" as="sourcePoint" />
            <mxPoint x="135" y="160" as="targetPoint" />
          </mxGeometry>
        </mxCell>
        <mxCell id="SFstPTwYjAzJgic-Dg-D-32" value="False" style="edgeLabel;resizable=0;html=1;align=center;verticalAlign=middle;" connectable="0" vertex="1" parent="SFstPTwYjAzJgic-Dg-D-31">
          <mxGeometry relative="1" as="geometry" />
        </mxCell>
        <mxCell id="SFstPTwYjAzJgic-Dg-D-36" value="" style="endArrow=classic;html=1;exitX=0.5;exitY=1;exitDx=0;exitDy=0;" edge="1" parent="1">
          <mxGeometry relative="1" as="geometry">
            <mxPoint x="133.75" y="230" as="sourcePoint" />
            <mxPoint x="134" y="300" as="targetPoint" />
          </mxGeometry>
        </mxCell>
        <mxCell id="SFstPTwYjAzJgic-Dg-D-37" value="False" style="edgeLabel;resizable=0;html=1;align=center;verticalAlign=middle;" connectable="0" vertex="1" parent="SFstPTwYjAzJgic-Dg-D-36">
          <mxGeometry relative="1" as="geometry" />
        </mxCell>
        <mxCell id="SFstPTwYjAzJgic-Dg-D-38" value="" style="endArrow=classic;html=1;" edge="1" parent="1">
          <mxGeometry relative="1" as="geometry">
            <mxPoint x="173.75" y="199.5" as="sourcePoint" />
            <mxPoint x="273.75" y="199.5" as="targetPoint" />
          </mxGeometry>
        </mxCell>
        <mxCell id="SFstPTwYjAzJgic-Dg-D-39" value="True" style="edgeLabel;resizable=0;html=1;align=center;verticalAlign=middle;" connectable="0" vertex="1" parent="SFstPTwYjAzJgic-Dg-D-38">
          <mxGeometry relative="1" as="geometry" />
        </mxCell>
        <mxCell id="SFstPTwYjAzJgic-Dg-D-42" value="" style="endArrow=classic;html=1;" edge="1" parent="1">
          <mxGeometry relative="1" as="geometry">
            <mxPoint x="173.75" y="339.5" as="sourcePoint" />
            <mxPoint x="273.75" y="339.5" as="targetPoint" />
          </mxGeometry>
        </mxCell>
        <mxCell id="SFstPTwYjAzJgic-Dg-D-43" value="True" style="edgeLabel;resizable=0;html=1;align=center;verticalAlign=middle;" connectable="0" vertex="1" parent="SFstPTwYjAzJgic-Dg-D-42">
          <mxGeometry relative="1" as="geometry" />
        </mxCell>
        <mxCell id="SFstPTwYjAzJgic-Dg-D-59" value="" style="endArrow=classic;html=1;exitX=0.5;exitY=1;exitDx=0;exitDy=0;" edge="1" parent="1">
          <mxGeometry relative="1" as="geometry">
            <mxPoint x="133.75" y="380" as="sourcePoint" />
            <mxPoint x="134" y="460" as="targetPoint" />
          </mxGeometry>
        </mxCell>
        <mxCell id="SFstPTwYjAzJgic-Dg-D-60" value="False" style="edgeLabel;resizable=0;html=1;align=center;verticalAlign=middle;" connectable="0" vertex="1" parent="SFstPTwYjAzJgic-Dg-D-59">
          <mxGeometry relative="1" as="geometry" />
        </mxCell>
        <mxCell id="SFstPTwYjAzJgic-Dg-D-61" value="convert" style="text;html=1;strokeColor=none;fillColor=none;align=center;verticalAlign=middle;whiteSpace=wrap;rounded=0;" vertex="1" parent="1">
          <mxGeometry x="113.75" y="460" width="40" height="20" as="geometry" />
        </mxCell>
        <mxCell id="SFstPTwYjAzJgic-Dg-D-62" value="male" style="rhombus;whiteSpace=wrap;html=1;" vertex="1" parent="1">
          <mxGeometry x="270" y="300" width="80" height="80" as="geometry" />
        </mxCell>
        <mxCell id="SFstPTwYjAzJgic-Dg-D-63" value="age&amp;lt;19" style="rhombus;whiteSpace=wrap;html=1;" vertex="1" parent="1">
          <mxGeometry x="93.75" y="10" width="80" height="80" as="geometry" />
        </mxCell>
        <mxCell id="SFstPTwYjAzJgic-Dg-D-65" value="age&amp;lt;30" style="rhombus;whiteSpace=wrap;html=1;" vertex="1" parent="1">
          <mxGeometry x="93.75" y="160" width="80" height="80" as="geometry" />
        </mxCell>
        <mxCell id="SFstPTwYjAzJgic-Dg-D-66" value="age&amp;lt;40" style="rhombus;whiteSpace=wrap;html=1;" vertex="1" parent="1">
          <mxGeometry x="93.75" y="300" width="80" height="80" as="geometry" />
        </mxCell>
        <mxCell id="SFstPTwYjAzJgic-Dg-D-68" value="male?" style="rhombus;whiteSpace=wrap;html=1;" vertex="1" parent="1">
          <mxGeometry x="270" y="160" width="80" height="80" as="geometry" />
        </mxCell>
        <mxCell id="SFstPTwYjAzJgic-Dg-D-71" value="" style="endArrow=classic;html=1;" edge="1" parent="1">
          <mxGeometry relative="1" as="geometry">
            <mxPoint x="350" y="339.5" as="sourcePoint" />
            <mxPoint x="450" y="339.5" as="targetPoint" />
            <Array as="points">
              <mxPoint x="400" y="340" />
            </Array>
          </mxGeometry>
        </mxCell>
        <mxCell id="SFstPTwYjAzJgic-Dg-D-72" value="True" style="edgeLabel;resizable=0;html=1;align=center;verticalAlign=middle;" connectable="0" vertex="1" parent="SFstPTwYjAzJgic-Dg-D-71">
          <mxGeometry relative="1" as="geometry" />
        </mxCell>
        <mxCell id="SFstPTwYjAzJgic-Dg-D-73" value="ideal" style="text;html=1;strokeColor=none;fillColor=none;align=center;verticalAlign=middle;whiteSpace=wrap;rounded=0;" vertex="1" parent="1">
          <mxGeometry x="450" y="330" width="40" height="20" as="geometry" />
        </mxCell>
        <mxCell id="SFstPTwYjAzJgic-Dg-D-77" value="" style="endArrow=classic;html=1;exitX=0.5;exitY=1;exitDx=0;exitDy=0;" edge="1" parent="1">
          <mxGeometry relative="1" as="geometry">
            <mxPoint x="309.5" y="380" as="sourcePoint" />
            <mxPoint x="309.75" y="460" as="targetPoint" />
          </mxGeometry>
        </mxCell>
        <mxCell id="SFstPTwYjAzJgic-Dg-D-78" value="False" style="edgeLabel;resizable=0;html=1;align=center;verticalAlign=middle;" connectable="0" vertex="1" parent="SFstPTwYjAzJgic-Dg-D-77">
          <mxGeometry relative="1" as="geometry" />
        </mxCell>
        <mxCell id="SFstPTwYjAzJgic-Dg-D-79" value="" style="endArrow=classic;html=1;" edge="1" parent="1">
          <mxGeometry relative="1" as="geometry">
            <mxPoint x="350" y="199.5" as="sourcePoint" />
            <mxPoint x="450" y="199.5" as="targetPoint" />
            <Array as="points">
              <mxPoint x="370" y="200" />
              <mxPoint x="400" y="200" />
            </Array>
          </mxGeometry>
        </mxCell>
        <mxCell id="SFstPTwYjAzJgic-Dg-D-80" value="False" style="edgeLabel;resizable=0;html=1;align=center;verticalAlign=middle;" connectable="0" vertex="1" parent="SFstPTwYjAzJgic-Dg-D-79">
          <mxGeometry relative="1" as="geometry" />
        </mxCell>
        <mxCell id="SFstPTwYjAzJgic-Dg-D-83" value="" style="endArrow=classic;html=1;" edge="1" parent="1">
          <mxGeometry relative="1" as="geometry">
            <mxPoint x="309.5" y="240" as="sourcePoint" />
            <mxPoint x="310" y="270" as="targetPoint" />
          </mxGeometry>
        </mxCell>
        <mxCell id="SFstPTwYjAzJgic-Dg-D-84" value="False" style="edgeLabel;resizable=0;html=1;align=center;verticalAlign=middle;" connectable="0" vertex="1" parent="SFstPTwYjAzJgic-Dg-D-83">
          <mxGeometry relative="1" as="geometry" />
        </mxCell>
        <mxCell id="SFstPTwYjAzJgic-Dg-D-85" value="ideal" style="text;html=1;strokeColor=none;fillColor=none;align=center;verticalAlign=middle;whiteSpace=wrap;rounded=0;" vertex="1" parent="1">
          <mxGeometry x="290" y="270" width="40" height="20" as="geometry" />
        </mxCell>
        <mxCell id="SFstPTwYjAzJgic-Dg-D-86" value="single?" style="rhombus;whiteSpace=wrap;html=1;" vertex="1" parent="1">
          <mxGeometry x="450" y="160" width="80" height="80" as="geometry" />
        </mxCell>
        <mxCell id="SFstPTwYjAzJgic-Dg-D-87" value="single?" style="rhombus;whiteSpace=wrap;html=1;" vertex="1" parent="1">
          <mxGeometry x="270" y="460" width="80" height="80" as="geometry" />
        </mxCell>
        <mxCell id="SFstPTwYjAzJgic-Dg-D-90" value="" style="endArrow=classic;html=1;" edge="1" parent="1">
          <mxGeometry relative="1" as="geometry">
            <mxPoint x="490" y="240" as="sourcePoint" />
            <mxPoint x="490.5" y="270" as="targetPoint" />
          </mxGeometry>
        </mxCell>
        <mxCell id="SFstPTwYjAzJgic-Dg-D-91" value="False" style="edgeLabel;resizable=0;html=1;align=center;verticalAlign=middle;" connectable="0" vertex="1" parent="SFstPTwYjAzJgic-Dg-D-90">
          <mxGeometry relative="1" as="geometry" />
        </mxCell>
        <mxCell id="SFstPTwYjAzJgic-Dg-D-92" value="convert" style="text;html=1;strokeColor=none;fillColor=none;align=center;verticalAlign=middle;whiteSpace=wrap;rounded=0;" vertex="1" parent="1">
          <mxGeometry x="470" y="270" width="40" height="20" as="geometry" />
        </mxCell>
        <mxCell id="SFstPTwYjAzJgic-Dg-D-96" value="" style="endArrow=classic;html=1;exitX=0.5;exitY=1;exitDx=0;exitDy=0;" edge="1" parent="1">
          <mxGeometry relative="1" as="geometry">
            <mxPoint x="309.5" y="540" as="sourcePoint" />
            <mxPoint x="309.75" y="610" as="targetPoint" />
          </mxGeometry>
        </mxCell>
        <mxCell id="SFstPTwYjAzJgic-Dg-D-97" value="False" style="edgeLabel;resizable=0;html=1;align=center;verticalAlign=middle;" connectable="0" vertex="1" parent="SFstPTwYjAzJgic-Dg-D-96">
          <mxGeometry relative="1" as="geometry" />
        </mxCell>
        <mxCell id="SFstPTwYjAzJgic-Dg-D-98" value="defect" style="text;html=1;strokeColor=none;fillColor=none;align=center;verticalAlign=middle;whiteSpace=wrap;rounded=0;" vertex="1" parent="1">
          <mxGeometry x="450" y="490" width="40" height="20" as="geometry" />
        </mxCell>
        <mxCell id="SFstPTwYjAzJgic-Dg-D-99" value="" style="endArrow=classic;html=1;" edge="1" parent="1">
          <mxGeometry relative="1" as="geometry">
            <mxPoint x="350" y="499.5" as="sourcePoint" />
            <mxPoint x="450" y="499.5" as="targetPoint" />
            <Array as="points">
              <mxPoint x="400" y="500" />
            </Array>
          </mxGeometry>
        </mxCell>
        <mxCell id="SFstPTwYjAzJgic-Dg-D-100" value="True" style="edgeLabel;resizable=0;html=1;align=center;verticalAlign=middle;" connectable="0" vertex="1" parent="SFstPTwYjAzJgic-Dg-D-99">
          <mxGeometry relative="1" as="geometry" />
        </mxCell>
        <mxCell id="SFstPTwYjAzJgic-Dg-D-101" value="married?" style="rhombus;whiteSpace=wrap;html=1;" vertex="1" parent="1">
          <mxGeometry x="270" y="610" width="80" height="80" as="geometry" />
        </mxCell>
        <mxCell id="SFstPTwYjAzJgic-Dg-D-102" value="" style="endArrow=classic;html=1;" edge="1" parent="1">
          <mxGeometry relative="1" as="geometry">
            <mxPoint x="350" y="649.5" as="sourcePoint" />
            <mxPoint x="450" y="649.5" as="targetPoint" />
            <Array as="points">
              <mxPoint x="400" y="650" />
            </Array>
          </mxGeometry>
        </mxCell>
        <mxCell id="SFstPTwYjAzJgic-Dg-D-103" value="True" style="edgeLabel;resizable=0;html=1;align=center;verticalAlign=middle;" connectable="0" vertex="1" parent="SFstPTwYjAzJgic-Dg-D-102">
          <mxGeometry relative="1" as="geometry" />
        </mxCell>
        <mxCell id="SFstPTwYjAzJgic-Dg-D-104" value="" style="endArrow=classic;html=1;exitX=0.5;exitY=1;exitDx=0;exitDy=0;" edge="1" parent="1">
          <mxGeometry relative="1" as="geometry">
            <mxPoint x="309.5" y="690" as="sourcePoint" />
            <mxPoint x="309.75" y="760" as="targetPoint" />
          </mxGeometry>
        </mxCell>
        <mxCell id="SFstPTwYjAzJgic-Dg-D-105" value="False" style="edgeLabel;resizable=0;html=1;align=center;verticalAlign=middle;" connectable="0" vertex="1" parent="SFstPTwYjAzJgic-Dg-D-104">
          <mxGeometry relative="1" as="geometry" />
        </mxCell>
        <mxCell id="SFstPTwYjAzJgic-Dg-D-106" value="convert" style="text;html=1;strokeColor=none;fillColor=none;align=center;verticalAlign=middle;whiteSpace=wrap;rounded=0;" vertex="1" parent="1">
          <mxGeometry x="290" y="760" width="40" height="20" as="geometry" />
        </mxCell>
        <mxCell id="SFstPTwYjAzJgic-Dg-D-107" value="" style="endArrow=classic;html=1;" edge="1" parent="1">
          <mxGeometry relative="1" as="geometry">
            <mxPoint x="530" y="199.5" as="sourcePoint" />
            <mxPoint x="630" y="199.5" as="targetPoint" />
            <Array as="points">
              <mxPoint x="580" y="200" />
            </Array>
          </mxGeometry>
        </mxCell>
        <mxCell id="SFstPTwYjAzJgic-Dg-D-108" value="True" style="edgeLabel;resizable=0;html=1;align=center;verticalAlign=middle;" connectable="0" vertex="1" parent="SFstPTwYjAzJgic-Dg-D-107">
          <mxGeometry relative="1" as="geometry" />
        </mxCell>
      </root>
    </mxGraphModel>
  </diagram>
</mxfile>
